<svg width="31" height="37" viewBox="0 0 31 37" fill="none" xmlns="http://www.w3.org/2000/svg">
<g filter="url(#filter0_i_48_78)">
<path d="M11.8493 8.6993L8.68596 1.21524C8.3798 0.490908 7.59976 0.0748029 6.83421 0.254595C6.03668 0.441899 5.33261 0.643746 4.70998 0.858696C-2.11797 3.2159 -0.112511 13.5093 2.78007 20.1283C6.33555 28.2641 8.74586 31.1568 12.4887 33.6802C16.5107 36.3919 21.875 38.2513 26.138 35.937C28.418 34.6993 29.9124 32.3676 30.5371 27.653C30.6263 26.9803 30.2716 26.3272 29.6705 26.0125L22.6177 22.3191C22.114 22.0553 21.5106 22.0663 21.0169 22.3484L17.1712 24.5454C16.4464 24.9594 15.5271 24.7738 15.0198 24.111L8.9168 16.1378C8.46843 15.5521 8.4582 14.7413 8.89164 14.1444L11.6626 10.3284C12.006 9.85556 12.0768 9.23753 11.8493 8.6993Z" fill="black"/>
</g>
<path d="M8.30195 1.37755L11.4653 8.86161C11.6359 9.26528 11.5828 9.72881 11.3253 10.0834L8.5543 13.8994C8.0125 14.6456 8.02529 15.659 8.58576 16.3912L14.6887 24.3644C15.3229 25.1929 16.472 25.4249 17.378 24.9074L21.2237 22.7104C21.594 22.4988 22.0465 22.4905 22.4243 22.6884L29.4771 26.3818C29.9298 26.6189 30.189 27.1064 30.1239 27.5982C29.5081 32.2453 28.0544 34.4223 25.9391 35.5706C23.9191 36.6672 21.6206 36.7859 19.3112 36.2859C16.9997 35.7855 14.7019 34.6696 12.7218 33.3346C9.07022 30.8727 6.70113 28.0595 3.16209 19.9613C1.72866 16.6813 0.525968 12.512 0.516723 8.89427C0.507468 5.27326 1.68123 2.34535 4.84602 1.25277C5.45329 1.04312 6.14354 0.845042 6.92953 0.66045C7.48896 0.529064 8.0715 0.832338 8.30195 1.37755Z" stroke="white" stroke-width="0.833795" stroke-linecap="round"/>
<defs>
<filter id="filter0_i_48_78" x="0.0997772" y="-0.787109" width="30.451" height="37.7727" filterUnits="userSpaceOnUse" color-interpolation-filters="sRGB">
<feFlood flood-opacity="0" result="BackgroundImageFix"/>
<feBlend mode="normal" in="SourceGraphic" in2="BackgroundImageFix" result="shape"/>
<feColorMatrix in="SourceAlpha" type="matrix" values="0 0 0 0 0 0 0 0 0 0 0 0 0 0 0 0 0 0 127 0" result="hardAlpha"/>
<feOffset dy="-1"/>
<feGaussianBlur stdDeviation="3"/>
<feComposite in2="hardAlpha" operator="arithmetic" k2="-1" k3="1"/>
<feColorMatrix type="matrix" values="0 0 0 0 1 0 0 0 0 1 0 0 0 0 1 0 0 0 1 0"/>
<feBlend mode="normal" in2="shape" result="effect1_innerShadow_48_78"/>
</filter>
</defs>
</svg>
