<svg width="31" height="37" viewBox="0 0 31 37" fill="none" xmlns="http://www.w3.org/2000/svg">
<path d="M8.30195 1.37755L11.4653 8.86161C11.6359 9.26528 11.5828 9.72881 11.3253 10.0834L8.5543 13.8994C8.0125 14.6456 8.02529 15.659 8.58576 16.3912L14.6887 24.3644C15.3229 25.1929 16.472 25.4249 17.378 24.9074L21.2237 22.7104C21.594 22.4988 22.0465 22.4905 22.4243 22.6884L29.4771 26.3818C29.9298 26.6189 30.189 27.1064 30.1239 27.5982C29.5081 32.2453 28.0544 34.4223 25.9391 35.5706C23.9191 36.6672 21.6206 36.7859 19.3112 36.2859C16.9997 35.7855 14.7019 34.6696 12.7218 33.3346C9.07022 30.8727 6.70113 28.0595 3.16209 19.9613C1.72866 16.6813 0.525968 12.512 0.516723 8.89427C0.507468 5.27326 1.68123 2.34535 4.84602 1.25277C5.45329 1.04312 6.14354 0.845042 6.92953 0.66045C7.48896 0.529064 8.0715 0.832338 8.30195 1.37755Z" fill="black" stroke="#565656" stroke-width="0.833795" stroke-linecap="round"/>
</svg>
