<svg width="29" height="42" viewBox="0 0 29 42" fill="none" xmlns="http://www.w3.org/2000/svg">
<path fill-rule="evenodd" clip-rule="evenodd" d="M13.778 41.6897L1.93259 21.2667C-3.54321 11.8256 3.26871 -5.34058e-05 14.1828 -5.34058e-05C25.2829 -5.34058e-05 32.0679 12.1898 26.2188 21.6238L13.778 41.6897ZM13.8018 40.0689L2.65385 20.8483C-2.49955 11.9632 3.9113 0.83374 14.1828 0.83374C24.6294 0.83374 31.0148 12.3059 25.5101 21.1845L13.8018 40.0689Z" fill="#565656"/>
<path d="M2.65385 20.8483L13.8018 40.0689L25.5101 21.1845C31.0148 12.3059 24.6294 0.83374 14.1828 0.83374C3.9113 0.83374 -2.49955 11.9632 2.65385 20.8483Z" fill="black"/>
<path fill-rule="evenodd" clip-rule="evenodd" d="M18.7807 15.0084C18.7807 17.7713 16.5409 20.0112 13.7779 20.0112C11.015 20.0112 8.77518 17.7713 8.77518 15.0084C8.77518 12.2454 11.015 10.0056 13.7779 10.0056C16.5409 10.0056 18.7807 12.2454 18.7807 15.0084ZM13.7779 19.1774C16.0804 19.1774 17.9469 17.3108 17.9469 15.0084C17.9469 12.7059 16.0804 10.8394 13.7779 10.8394C11.4755 10.8394 9.60897 12.7059 9.60897 15.0084C9.60897 17.3108 11.4755 19.1774 13.7779 19.1774Z" fill="#565656"/>
</svg>
