<svg width="39" height="38" viewBox="0 0 39 38" fill="none" xmlns="http://www.w3.org/2000/svg">
<g filter="url(#filter0_i_48_86)">
<circle cx="19.4058" cy="19.0319" r="18.3435" fill="black" stroke="white" stroke-width="0.833795"/>
<mask id="path-2-inside-1_48_86" fill="white">
<path d="M2.14627 13.0281H36.2902V25.0347H2.14627V13.0281Z"/>
</mask>
<path d="M2.14627 13.0281H36.2902V25.0347H2.14627V13.0281Z" fill="black"/>
<path d="M2.14627 13.8619H36.2902V12.1943H2.14627V13.8619ZM36.2902 24.2009H2.14627V25.8685H36.2902V24.2009Z" fill="white" mask="url(#path-2-inside-1_48_86)"/>
<path d="M12.3185 19.0319C12.3185 24.1154 14.161 28.7343 16.0186 32.0958C16.946 33.7741 17.8734 35.1322 18.5682 36.0698C18.9155 36.5384 19.2043 36.9015 19.4056 37.1466C19.4412 37.1899 19.474 37.2296 19.504 37.2655C19.5075 37.2633 19.5111 37.2612 19.5147 37.2591C19.7052 37.1455 19.9831 36.9638 20.3196 36.6974C20.9922 36.1649 21.9003 35.2928 22.8128 33.9469C24.6353 31.2588 26.4931 26.6531 26.4931 19.0319C26.4931 13.9484 24.6506 9.32949 22.793 5.96791C21.8656 4.28964 20.9382 2.93155 20.2434 1.99399C19.8961 1.52536 19.6073 1.16224 19.406 0.917183C19.406 0.917085 19.4059 0.916987 19.4058 0.916889C19.4057 0.916987 19.4056 0.917085 19.4056 0.917183C19.2043 1.16224 18.9155 1.52536 18.5682 1.99399C17.8734 2.93155 16.946 4.28964 16.0186 5.96791C14.161 9.32949 12.3185 13.9484 12.3185 19.0319Z" stroke="white" stroke-width="0.833795"/>
</g>
<defs>
<filter id="filter0_i_48_86" x="0.645386" y="0.271484" width="37.5208" height="37.5208" filterUnits="userSpaceOnUse" color-interpolation-filters="sRGB">
<feFlood flood-opacity="0" result="BackgroundImageFix"/>
<feBlend mode="normal" in="SourceGraphic" in2="BackgroundImageFix" result="shape"/>
<feColorMatrix in="SourceAlpha" type="matrix" values="0 0 0 0 0 0 0 0 0 0 0 0 0 0 0 0 0 0 127 0" result="hardAlpha"/>
<feOffset/>
<feGaussianBlur stdDeviation="4"/>
<feComposite in2="hardAlpha" operator="arithmetic" k2="-1" k3="1"/>
<feColorMatrix type="matrix" values="0 0 0 0 1 0 0 0 0 1 0 0 0 0 1 0 0 0 1 0"/>
<feBlend mode="normal" in2="shape" result="effect1_innerShadow_48_86"/>
</filter>
</defs>
</svg>
